<svg width="46" height="10" viewBox="0 0 42 11" fill="none" xmlns="http://www.w3.org/2000/svg">
<path d="M35.8893 8.20313C36.2205 8.20313 36.4941 8.31362 36.7106 8.53564C36.9272 8.75766 37.0356 9.03 37.0356 9.35374C37.0356 9.67748 36.9282 9.94985 36.7127 10.1697C36.4975 10.3895 36.225 10.5 35.8937 10.5C35.5622 10.5 35.2866 10.3895 35.0679 10.1675C34.8479 9.94547 34.7387 9.67313 34.7387 9.34939C34.7387 9.02565 34.8479 8.75328 35.0655 8.53343C35.2834 8.31359 35.558 8.20313 35.8893 8.20313ZM30.6348 3.93203H16.6764C13.1764 3.93203 12.4316 4.20217 10.5963 5.9817H10.5973L5.94017 10.5H0L7.39048 3.1653C10.138 0.446249 11.4625 1.1221e-07 16.147 0H34.6511L30.6348 3.93203ZM30.0355 4.55982L26.354 8.24138H16.8295C15.0839 8.24138 14.6978 8.32341 13.8316 9.18966L12.5212 10.5H7.01313L11.0852 6.42795C12.6842 4.82999 13.2355 4.55982 16.7606 4.55982H30.0355ZM42 0L31.4717 10.5H24.9605L35.4606 0H42ZM35.8872 8.3836C35.6157 8.3836 35.3884 8.47768 35.2047 8.66579C35.022 8.85392 34.9301 9.08143 34.9301 9.34939C34.9301 9.61735 35.022 9.84483 35.2047 10.033C35.3874 10.2211 35.6147 10.3151 35.8872 10.3151C36.1594 10.3151 36.3859 10.2222 36.5697 10.0352C36.7524 9.84813 36.844 9.62063 36.844 9.35157C36.844 9.0825 36.7524 8.85392 36.5697 8.66579C36.387 8.47765 36.1594 8.3836 35.8872 8.3836ZM35.8893 8.71718C36.0544 8.71718 36.1791 8.74782 36.2623 8.81016C36.3452 8.8714 36.387 8.96438 36.387 9.08796C36.387 9.21155 36.3704 9.30342 36.3366 9.36359C36.3027 9.42375 36.2457 9.47187 36.1649 9.50906L36.4043 9.99251H36.1386L35.921 9.54188H35.664L35.6627 9.54078V9.99141H35.4102V8.71718H35.8893ZM35.6585 9.34282H35.9155C35.9943 9.34282 36.0512 9.32642 36.0851 9.2925C36.12 9.25859 36.1376 9.20391 36.1376 9.12844C36.1376 8.98517 36.0478 8.91406 35.8675 8.91406H35.6585V9.34282Z" fill="#E10600"/>
</svg>
