<svg width="40" height="50" viewBox="0 0 40 50" fill="none" xmlns="http://www.w3.org/2000/svg">
<path d="M22.7739 18.9629C25.5515 20.3083 27.6672 22.3014 28.8532 24.412C30.0399 26.5244 30.2759 28.7084 29.4042 30.508C28.5325 32.3076 26.6725 33.4764 24.2793 33.8548C21.888 34.2327 19.0125 33.808 16.2349 32.4626C13.4573 31.1172 11.3415 29.1242 10.1556 27.0136C8.96884 24.9012 8.7329 22.7172 9.6046 20.9176C10.4763 19.1179 12.3363 17.9491 14.7294 17.5708C17.1208 17.1929 19.9962 17.6175 22.7739 18.9629Z" fill="#FD853A" stroke="#FB6514"/>
<ellipse cx="16.3544" cy="24.187" rx="7" ry="6" transform="rotate(25.8444 16.3544 24.187)" fill="#FEB273"/>
<mask id="path-3-inside-1_62_286" fill="white">
<path d="M24.361 28.3029L24.3101 28.2782C23.2804 29.5296 20.6904 29.6207 18.1966 28.4128C15.7028 27.2049 14.1686 25.1161 14.5122 23.5324L14.4612 23.5077L18.9138 14.3154L28.8136 19.1106L24.361 28.3029Z"/>
</mask>
<path d="M24.361 28.3029L24.3101 28.2782C23.2804 29.5296 20.6904 29.6207 18.1966 28.4128C15.7028 27.2049 14.1686 25.1161 14.5122 23.5324L14.4612 23.5077L18.9138 14.3154L28.8136 19.1106L24.361 28.3029Z" fill="#FD853A"/>
<path d="M24.361 28.3029L23.9251 29.2029L24.8251 29.6388L25.261 28.7389L24.361 28.3029ZM24.3101 28.2782L24.746 27.3783L24.0378 27.0352L23.5378 27.6429L24.3101 28.2782ZM14.5122 23.5324L15.4895 23.7445L15.6563 22.9755L14.9482 22.6324L14.5122 23.5324ZM14.4612 23.5077L13.5613 23.0718L13.1253 23.9718L14.0253 24.4077L14.4612 23.5077ZM18.9138 14.3154L19.3497 13.4154L18.4497 12.9795L18.0138 13.8795L18.9138 14.3154ZM28.8136 19.1106L29.7135 19.5466L30.1495 18.6466L29.2495 18.2107L28.8136 19.1106ZM24.361 28.3029L24.797 27.403L24.746 27.3783L24.3101 28.2782L23.8741 29.1782L23.9251 29.2029L24.361 28.3029ZM24.3101 28.2782L23.5378 27.6429C23.278 27.9587 22.7084 28.2439 21.7765 28.2681C20.8694 28.2916 19.7559 28.057 18.6325 27.5128L18.1966 28.4128L17.7607 29.3128C19.131 29.9765 20.5595 30.3003 21.8283 30.2674C23.0723 30.2352 24.3125 29.8491 25.0823 28.9136L24.3101 28.2782ZM18.1966 28.4128L18.6325 27.5128C17.5091 26.9687 16.6347 26.2405 16.0908 25.5141C15.5321 24.7679 15.4028 24.1442 15.4895 23.7445L14.5122 23.5324L13.535 23.3204C13.2781 24.5043 13.7441 25.7168 14.4899 26.7129C15.2507 27.7289 16.3903 28.649 17.7607 29.3128L18.1966 28.4128ZM14.5122 23.5324L14.9482 22.6324L14.8972 22.6077L14.4612 23.5077L14.0253 24.4077L14.0763 24.4324L14.5122 23.5324ZM14.4612 23.5077L15.3612 23.9436L19.8137 14.7514L18.9138 14.3154L18.0138 13.8795L13.5613 23.0718L14.4612 23.5077ZM18.9138 14.3154L18.4778 15.2154L28.3776 20.0106L28.8136 19.1106L29.2495 18.2107L19.3497 13.4154L18.9138 14.3154ZM28.8136 19.1106L27.9136 18.6747L23.4611 27.867L24.361 28.3029L25.261 28.7389L29.7135 19.5466L28.8136 19.1106Z" fill="#FB6514" mask="url(#path-3-inside-1_62_286)"/>
<rect x="19.3776" y="15.6511" width="2" height="7" transform="rotate(25.8444 19.3776 15.6511)" fill="#FEB273"/>
<path d="M29.3128 5.46314C33.8911 7.68078 36.0012 12.3004 34.3611 15.6864C32.721 19.0724 27.7881 20.2805 23.2098 18.0629C18.6314 15.8452 16.5213 11.2256 18.1614 7.83965C19.8015 4.45366 24.7344 3.24549 29.3128 5.46314Z" fill="#FD853A" stroke="#FB6514"/>
<ellipse cx="23.5473" cy="9.33725" rx="4" ry="3.5" transform="rotate(25.8444 23.5473 9.33725)" fill="#FEB273"/>
<rect x="14.6669" y="32.2588" width="2" height="13" transform="rotate(25.8444 14.6669 32.2588)" fill="#DDDADA"/>
</svg>
